<svg xmlns="http://www.w3.org/2000/svg" width="182.157" height="205.19"><path d="M114.437 17.66c15.042-5.84 25.132-3.28 35.413.92 6.327-2.97 13.473-9.74 17.539-14.13 1.294-1.48 2.589-2.97 3.882-4.45-.012 8.78-1.66 16.26-5.923 23.04-.947 1.51-1.752 3.37-3.171 4.63l.035.09c8.451-3.21 14.037-9.61 19.917-14.13l.035.09a67.292 67.292 0 0 1-7.651 20.11c-1.439 2.37-2.879 4.73-4.317 7.1 3.419 8.96 6.332 17.63 7.434 25.81 6.4 47.53-8.494 86.87-44.739 114.71-13.015 10-36.081 20.62-54.466 22.63a151.029 151.029 0 0 1-25.748.93 97.384 97.384 0 0 1-13.162-1.65c-1.4-.27-2.8-.55-4.2-.83 3.842-1.28 8.672-1.87 12.667-4.12 3.614-2.03 7.443-3.25 10.7-5.34 8.128-5.19 15.034-10.65 20.341-17.1 2.573-3.12 6.718-7.21 8.029-10.84a35.458 35.458 0 0 1-12.4 2.18c-14.289.18-24.672-5.33-34-15.92 3.985-.99 15.391-4.05 17.17-7.18-4.922 1.5-10.589.41-14.668-.45-12.516-2.63-24.743-10.27-30.731-26.75 1.568.15 3.137.29 4.7.44a45.7 45.7 0 0 0 9.041-.74c1.386-.2 4.239-.39 5.515-1.48a1.469 1.469 0 0 0-.191.07c-2.812-1.57-6.58-1.92-9.463-3.66C12.511 105.92 1.797 95.66.19 79.35a48.437 48.437 0 0 1 .448-11.73l.226.03c1.345 1.31 3.47 1.85 5.034 2.79a76.379 76.379 0 0 0 15.731 6.86c18.386 5.94 33.767 8.08 56.284 5.57a79.222 79.222 0 0 0 18.386-4.16c-3.642-4.48-6.127-12.98-6.568-18.45-1.108-13.75 3.142-25.53 12.457-34.42a50.122 50.122 0 0 1 7.7-5.86c1.51-.77 3.03-1.55 4.549-2.32z" fill="#fff" fill-rule="evenodd" opacity=".1"/></svg>